<?xml version="1.0" encoding="iso-8859-1"?>
<svg version="1.1" xmlns="http://www.w3.org/2000/svg" xmlns:xlink="http://www.w3.org/1999/xlink"
	 viewBox="0 0 426 426" preserveAspectRatio="xMinYMid" xml:space="preserve">
<path style="fill:#03A9F4;" d="M213.338,0C95.509,0,0,95.497,0,213.325c0,117.854,95.509,213.342,213.338,213.342
c117.82,0,213.329-95.488,213.329-213.342C426.667,95.497,331.157,0,213.338,0z M213.333,99.49
c14.793,0,26.786,11.994,26.786,26.786s-11.998,26.782-26.786,26.782s-26.786-11.994-26.786-26.782
C186.547,111.484,198.541,99.49,213.333,99.49z M260.207,327.181H166.46v-40.183h20.087v-80.358H166.46V166.46h73.664v40.179
v80.358h20.087v40.183H260.207z"/>
</svg>
