<?xml version="1.0" encoding="utf-8"?>
<svg version="1.1" xmlns="http://www.w3.org/2000/svg" xmlns:xlink="http://www.w3.org/1999/xlink"
	 viewBox="0 0 193.9 47.1" xml:space="preserve">
<style type="text/css">
	.st0{fill:#d8d8d8;}
	.st1{fill:#258C90;}
</style>
<path class="st0" d="M3.2,8.1c1,0,2.1,1.8,3.3,5.4c4.7,10.7,7.3,16.4,7.8,17c5-10.6,8.1-16.9,9.3-18.9c0.4-0.2,0.8-0.4,1.1-0.4h0.4
	c1.2,0,2.7,2.3,4.5,7c1.6,2.9,3.6,7.1,6.1,12.4h0.2C41.8,16.3,45,8.9,45.7,8.4c0.2-0.1,0.4-0.2,0.7-0.2h0.8C48.4,8.5,49,9,49,9.8
	c-7.2,17.5-11.2,26.7-12,27.6l-0.9,0.2c-1.6,0-2.8-1.5-3.7-4.6c-0.9-1.6-3.3-6.6-7.2-15H25c0,0.4-3.2,6.9-9.5,19.3l-1.3,0.4h-0.6
	c-1.1,0-2.3-2-3.7-6.1C3.7,17.7,0.6,10.5,0.6,10.1C0.6,9,1.5,8.3,3.2,8.1z"/>
<path class="st0" d="M98.8,0.5h0.4c1.2,0.2,1.8,0.7,1.8,1.6v33.7c0,1.1-0.7,1.7-2.2,1.8c-1.2-0.3-1.8-0.9-1.8-1.8V2.2
	C96.9,1.2,97.5,0.7,98.8,0.5z"/>
<path class="st0" d="M119.6,8.7h2.2c5.4,0,9.6,3,12.6,8.9c0.6,2.1,0.9,4.2,0.9,6.1c0,1.1-0.8,1.8-2.4,2h-22.2c0,2.8,1.9,5.2,5.7,7.4
	c1.4,0.5,2.6,0.8,3.7,0.8h0.9c2.9,0,5.5-0.9,7.7-2.8l0.9-0.2c1.2,0.3,1.8,0.9,1.8,1.8c-0.7,2.8-4.1,4.5-10.2,5h-0.9
	c-6.8,0-11.3-3.4-13.5-10.2c-0.4-0.9-0.6-2.1-0.6-3.7v-1.3c0-6.4,3.4-10.9,10.2-13.5C118,8.8,119,8.7,119.6,8.7z M110.5,22.2h20.8
	c0-4-2.3-7-6.9-9.1c-1.1-0.4-2.3-0.6-3.7-0.6c-4.9,0-8.2,2.5-9.8,7.4C110.6,20.9,110.5,21.7,110.5,22.2z"/>
<path class="st0" d="M151.8,8.7h2.2c5.4,0,9.6,3,12.6,8.9c0.6,2.1,0.9,4.2,0.9,6.1c0,1.1-0.8,1.8-2.4,2h-22.2c0,2.8,1.9,5.2,5.7,7.4
	c1.4,0.5,2.6,0.8,3.7,0.8h0.9c2.9,0,5.5-0.9,7.7-2.8l0.9-0.2c1.2,0.3,1.8,0.9,1.8,1.8c-0.7,2.8-4.1,4.5-10.2,5h-0.9
	c-6.8,0-11.3-3.4-13.5-10.2c-0.4-0.9-0.6-2.1-0.6-3.7v-1.3c0-6.4,3.4-10.9,10.2-13.5C150.2,8.8,151.2,8.7,151.8,8.7z M142.7,22.2
	h20.7c0-4-2.3-7-6.9-9.1c-1.1-0.4-2.3-0.6-3.7-0.6c-4.9,0-8.2,2.5-9.8,7.4C142.8,20.9,142.7,21.7,142.7,22.2z"/>
<path class="st0" d="M176.7,0.3c1.4,0.3,2,0.9,2,1.8v6.7h6.1c1.2,0.2,1.9,0.7,1.9,1.7v0.4c0,0.9-0.6,1.5-1.9,1.6h-6.1v13.2
	c0,5.1,0.7,7.6,2.2,7.6c0,0.3,0.6,0.5,1.7,0.6c0.9,0,2.3-0.3,4.2-0.9h0.2c1,0.5,1.5,1.1,1.5,1.8c0,1.7-1.8,2.7-5.4,3h-0.4
	c-3.7,0-6.2-1.8-7.6-5.4c-0.4-1.6-0.6-3-0.6-4.5V12.5h-3.7c-1.2-0.2-1.8-0.7-1.8-1.6v-0.2c0.2-1.2,0.8-1.9,1.8-1.9h3.7V2.4
	C174.9,1,175.6,0.3,176.7,0.3z"/>
<g>
	<g>
		<path class="st1" d="M70.4,1.8l-17.1,9.8c-0.8,0.5-1.3,1.3-1.3,2.3v19.7c0,0.9,0.5,1.8,1.3,2.3l17.1,9.9c0.8,0.5,1.8,0.5,2.6,0
			l17.1-9.9c0.8-0.5,1.3-1.3,1.3-2.3V13.9c0-0.9-0.5-1.8-1.3-2.3L73,1.8C72.2,1.3,71.2,1.3,70.4,1.8z M82.6,31.9L73,37.4
			c-0.8,0.5-1.8,0.5-2.6,0l-9.6-5.5c-0.8-0.5-1.3-1.3-1.3-2.3v-11c0-0.9,0.5-1.8,1.3-2.3l9.6-5.5c0.8-0.5,1.8-0.5,2.6,0l9.6,5.5
			c0.8,0.5,1.3,1.3,1.3,2.3v11.1C84,30.6,83.5,31.5,82.6,31.9z"/>
	</g>
	<g>
		<path class="st1" d="M72.3,28c-0.4-2-1-2-1.3-0.1c0,0,0,0,0.1,3.3s0.1,3.3,0.1,3.3c0.3,2,0.8,2,1.2-0.1c0,0,0,0,0-3.2
			C72.3,28,72.3,28,72.3,28z"/>
	</g>
	<g>
		<path class="st1" d="M74.5,22c-1.6,1.4-1.3,1.9,0.5,1.2c0,0,0,0,3-1.8s3-1.8,3-1.8c1.7-1.4,1.3-1.8-0.7-0.9c0,0,0,0-2.9,1.7
			C74.5,22,74.5,22,74.5,22z"/>
	</g>
	<g>
		<path class="st1" d="M68.9,21.9c1.5,1.3,1.3,1.9-0.5,1.2c0,0,0,0-2.9-1.8c-2.9-1.8-2.9-1.8-2.9-1.8c-1.6-1.3-1.3-1.8,0.7-0.9
			c0,0,0,0,2.8,1.7C68.9,21.9,68.9,21.9,68.9,21.9z"/>
	</g>
</g>
</svg>
