<?xml version="1.0" encoding="utf-8"?>
<!-- Generator: Adobe Illustrator 23.0.4, SVG Export Plug-In . SVG Version: 6.00 Build 0)  -->
<svg version="1.1" id="Layer_1" xmlns="http://www.w3.org/2000/svg" xmlns:xlink="http://www.w3.org/1999/xlink" x="0px" y="0px"
	 viewBox="0 0 63.8 63.8" style="enable-background:new 0 0 63.8 63.8;" xml:space="preserve">

<g id="Bitcoin_Logo_1_">
	<path  fill="currentColor" id="PMS_130_Coin" d="M62.9,39.6c-4.3,17.1-21.6,27.5-38.7,23.3C7.1,58.6-3.3,41.3,1,24.2S22.5-3.3,39.6,1
		C56.7,5.2,67.2,22.6,62.9,39.6z"/>
	<path  fill="white" id="Bitcoin_Symbol" class="st0" d="M47.1,27.8c0.6-4.3-2.7-6.5-7.1-8l1.4-5.8l-3.5-0.8l-1.3,5.6c-0.9-0.2-1.9-0.4-2.8-0.6
		l1.3-5.6l-3.6-0.8l-1.4,5.8c-0.8-0.2-1.5-0.3-2.3-0.5l0,0L23,15.9l-0.9,3.7c0,0,2.6,0.6,2.5,0.6c1.4,0.4,1.7,1.3,1.6,2l-1.6,6.6
		c0.1,0,0.2,0,0.4,0.1c-0.1,0-0.2,0-0.4-0.1L22.5,38c-0.1,0.4-0.5,1.1-1.5,0.8l-2.6-0.6l-1.7,4l4.6,1.1c0.8,0.2,1.7,0.4,2.5,0.6
		l-1.4,5.8l3.5,0.8l1.4-5.8c1,0.3,1.9,0.5,2.8,0.7l-1.4,5.7l3.5,0.8l1.4-5.8c6,1.1,10.5,0.6,12.3-4.9c1.5-4.3-0.1-6.8-3.3-8.5
		C44.9,32.4,46.6,30.9,47.1,27.8z M39.2,39.1c-1,4.3-8.4,2.1-10.7,1.5l1.8-7.7C32.6,33.5,40.2,34.5,39.2,39.1z M40.1,27.8
		c-0.9,3.9-7.1,2-9.1,1.6l1.7-7C34.7,22.8,41.1,23.7,40.1,27.8z"/>
</g>
</svg>
