<?xml version="1.0" encoding="utf-8"?>
<svg version="1.1" id="Calque_1" xmlns="http://www.w3.org/2000/svg" xmlns:xlink="http://www.w3.org/1999/xlink" x="0px" y="0px"
	 viewBox="0 0 50 62.5" style="enable-background:new 0 0 50 62.5;" xml:space="preserve">
<g>
	<path fill="currentColor" d="M24.4,30.6l-1.1,11l9-6.4L24.4,30.6z M35.9,10.6L25.7,28.3l7.9,4.6l10.2-17.8L35.9,10.6z M38.8,5.6l-1.6,2.8l9,5.2
		l-4.7,8.1l2.4,1.4L50,12.5l-3.5-2l0.4-0.8c0.3-1-0.1-2.1-1-2.7l-3.9-2.3C40.8,4.1,39.4,4.5,38.8,5.6z M10.8,30.6
		c-1.5,2.5-3.1,4.8-4.9,6.9c-1.8,2.1-3.7,4.1-5.9,5.9l1.8,2.2c2.3-1.9,4.4-4.1,6.3-6.4C8,40.4,7.9,41.6,7.9,43l2.2,1.1
		c1.5-1.1,2.6-2.1,3.5-3.1c0,0.8,0.1,1.5,0.2,2.2l2.2,0.9c1.2-0.8,2.3-1.6,3.2-2.5c0.1,0.6,0.3,1.2,0.5,1.8l2.7-0.8
		c-0.2-0.7-0.4-1.4-0.5-2.1c-0.1-0.7-0.1-1.4,0-2.2l-2.5-1c-0.8,1.1-1.7,2.1-2.7,2.9c0.1-1.5,0.3-3.1,0.8-4.6l-2.6-1.1
		c-1.2,2-2.2,3.7-3.8,5.3c0.4-2.8,1.3-5.3,2.4-7.9L10.8,30.6z"/>
</g>
</svg>
