<svg xmlns="http://www.w3.org/2000/svg" xmlns:xlink="http://www.w3.org/1999/xlink" version="1.1" xml:space="preserve" width="39" height="45"><rect id="backgroundrect" width="100%" height="100%" x="0" y="0" fill="none" stroke="none"/>
<style type="text/css">
	.st1{fill:#258C90;}
</style>

<g class="currentLayer" style=""><title>Layer 1</title><g id="svg_1" class="">
	<g id="svg_2">
		<path class="st1" d="M18.39999618530274,0.37500004768371586 l-17.1,9.8 c-0.8,0.5 -1.3,1.3 -1.3,2.3 v19.7 c0,0.9 0.5,1.8 1.3,2.3 l17.1,9.9 c0.8,0.5 1.8,0.5 2.6,0 l17.1,-9.9 c0.8,-0.5 1.3,-1.3 1.3,-2.3 V12.475000047683716 c0,-0.9 -0.5,-1.8 -1.3,-2.3 L20.999996185302734,0.37500004768371586 C20.199996185302737,-0.12499995231628414 19.199996185302737,-0.12499995231628414 18.39999618530274,0.37500004768371586 zM30.59999618530273,30.475000047683714 L20.999996185302734,35.975000047683714 c-0.8,0.5 -1.8,0.5 -2.6,0 l-9.6,-5.5 c-0.8,-0.5 -1.3,-1.3 -1.3,-2.3 v-11 c0,-0.9 0.5,-1.8 1.3,-2.3 l9.6,-5.5 c0.8,-0.5 1.8,-0.5 2.6,0 l9.6,5.5 c0.8,0.5 1.3,1.3 1.3,2.3 v11.1 C31.999996185302734,29.175000047683717 31.499996185302734,30.075000047683716 30.59999618530273,30.475000047683714 z" id="svg_3"/>
	</g>
	<g id="svg_4">
		<path class="st1" d="M20.29999618530273,26.575000047683716 c-0.4,-2 -1,-2 -1.3,-0.1 c0,0 0,0 0.1,3.3 s0.1,3.3 0.1,3.3 c0.30000000000000004,2 0.8,2 1.2,-0.1 c0,0 0,0 0,-3.2 C20.29999618530273,26.575000047683716 20.29999618530273,26.575000047683716 20.29999618530273,26.575000047683716 z" id="svg_5"/>
	</g>
	<g id="svg_6">
		<path class="st1" d="M22.499996185302734,20.575000047683716 c-1.6,1.4 -1.3,1.9 0.5,1.2 c0,0 0,0 3,-1.8 s3,-1.8 3,-1.8 c1.7000000000000002,-1.4 1.3,-1.8 -0.7000000000000001,-0.9 c0,0 0,0 -2.9,1.7000000000000002 C22.499996185302734,20.575000047683716 22.499996185302734,20.575000047683716 22.499996185302734,20.575000047683716 z" id="svg_7"/>
	</g>
	<g id="svg_8">
		<path class="st1" d="M16.89999618530274,20.475000047683714 c1.5,1.3 1.3,1.9 -0.5,1.2 c0,0 0,0 -2.9,-1.8 c-2.9,-1.8 -2.9,-1.8 -2.9,-1.8 c-1.6,-1.3 -1.3,-1.8 0.7000000000000001,-0.9 c0,0 0,0 2.8,1.7000000000000002 C16.89999618530274,20.475000047683714 16.89999618530274,20.475000047683714 16.89999618530274,20.475000047683714 z" id="svg_9"/>
	</g>
</g></g></svg>