<?xml version="1.0" encoding="utf-8"?>
<!-- Generator: Adobe Illustrator 23.0.4, SVG Export Plug-In . SVG Version: 6.00 Build 0)  -->
<svg version="1.1"
	 id="Calque_1" xmlns:cc="http://creativecommons.org/ns#" xmlns:dc="http://purl.org/dc/elements/1.1/" xmlns:rdf="http://www.w3.org/1999/02/22-rdf-syntax-ns#"
	 xmlns="http://www.w3.org/2000/svg" xmlns:xlink="http://www.w3.org/1999/xlink" x="0px" y="0px" viewBox="0 0 32 40"
	 style="enable-background:new 0 0 32 40;" xml:space="preserve">
<style type="text/css">
	.st0{fill:none;}
</style>
<rect class="st0" width="32" height="32"/>
<path color-rendering="auto" image-rendering="auto" shape-rendering="auto" d="M16,3c-3.9,0-7,3.1-7,7s3.1,7,7,7s7-3.1,7-7
	S19.9,3,16,3z M16,5c2.8,0,5,2.2,5,5s-2.2,5-5,5s-5-2.2-5-5S13.2,5,16,5z"/>
<path color-rendering="auto" image-rendering="auto" shape-rendering="auto" d="M16,19c-6.1,0-9.3,0.8-11.2,2.5
	c-0.9,0.9-1.4,2-1.6,3.1S3,26.8,3,28c0,0.6,0.4,1,1,1h24c0.6,0,1-0.4,1-1c0-1.2,0-2.3-0.2-3.4c-0.2-1.1-0.7-2.2-1.6-3.1
	C25.3,19.8,22.1,19,16,19L16,19z M16,21c5.9,0,8.6,0.9,9.8,2c0.6,0.6,0.9,1.2,1,2c0.1,0.6,0.1,1.3,0.1,2H5.1c0-0.7,0-1.5,0.1-2.1
	c0.2-0.8,0.4-1.4,1-2C7.4,21.9,10.1,21,16,21L16,21z"/>
</svg>
