<?xml version="1.0" encoding="utf-8"?>
<!-- Generator: Adobe Illustrator 23.0.4, SVG Export Plug-In . SVG Version: 6.00 Build 0)  -->
<svg version="1.1"
	 id="Calque_1" xmlns:cc="http://creativecommons.org/ns#" xmlns:dc="http://purl.org/dc/elements/1.1/" xmlns:rdf="http://www.w3.org/1999/02/22-rdf-syntax-ns#"
	 xmlns="http://www.w3.org/2000/svg" xmlns:xlink="http://www.w3.org/1999/xlink" x="0px" y="0px" viewBox="0 0 32 40"
	 style="enable-background:new 0 0 32 40;" xml:space="preserve">
<style type="text/css">
	.st0{fill:none;}
	.st1{clip-path:url(#SVGID_2_);}
	.st2{fill-rule:evenodd;clip-rule:evenodd;}
</style>
<rect class="st0" width="32" height="32"/>
<g>
	<defs>
		<rect id="SVGID_1_" width="32" height="32"/>
	</defs>
	<clipPath id="SVGID_2_">
		<use xlink:href="#SVGID_1_"  style="overflow:visible;"/>
	</clipPath>
	<g class="st1">
		<path color-rendering="auto" image-rendering="auto" shape-rendering="auto" d="M15,2c-0.2,0-0.4,0.1-0.6,0.2c0,0-0.9,0.7-2,1.6
			C10.5,5.3,8.3,6.5,6,7.3C4.8,7.7,3.7,8.1,3.7,8.1C3.3,8.2,3,8.6,3,9v4.3c0,7.4,4.7,14.1,11.7,16.6c0.1,0,0.2,0.1,0.3,0.1h0
			c0.1,0,0.2,0,0.3-0.1c0,0,0.3-0.1,0.8-0.3c6.3-2.3,10.6-8.2,10.8-15c0.3-0.2,0.6-0.4,1-0.7c0,0,0,0,0,0c0.5-0.5,0.8-0.9,0.9-1.5
			c0.1-0.5-0.1-0.8-0.1-1c0,0,0,0,0,0c0-0.1,0-0.1,0.1-0.2c0,0,0,0,0,0c0.1-0.1,0.5-0.2,0.8-0.7c0.3-0.4,0.4-1,0.4-1.6
			s-0.1-1.2-0.4-1.6S29,6.8,28.8,6.7c0,0,0,0,0,0c-0.1,0-0.1-0.1-0.1-0.2c0,0,0,0,0,0c0-0.2,0.2-0.4,0.1-1c-0.1-0.5-0.4-1-0.9-1.5
			c0,0,0,0,0,0c-0.5-0.5-0.9-0.8-1.5-0.9s-0.8,0.1-1,0.1c0,0,0,0,0,0c-0.1,0-0.1,0-0.2-0.1c0,0,0,0,0,0c-0.1-0.1-0.2-0.4-0.7-0.8
			S23.7,2,23,2s-1.2,0.1-1.7,0.4c-0.4,0.3-0.6,0.6-0.7,0.8c0,0,0,0,0,0c0,0.1-0.1,0.1-0.2,0.1c0,0,0,0,0,0c-0.1,0-0.4-0.2-1-0.1
			s-1,0.4-1.5,0.9c0,0,0,0,0,0c0,0,0,0-0.1,0.1l-2.4-1.9C15.4,2.1,15.2,2,15,2L15,2z M23,4c0.3,0,0.4,0,0.5,0c0,0,0.1,0.1,0.2,0.3
			c0.5,0.7,1.3,1,2.1,0.9c0.2,0,0.3,0,0.4-0.1h0c0.1,0,0.2,0.1,0.4,0.3c0.2,0.2,0.3,0.3,0.3,0.4c0,0.1,0,0.2-0.1,0.4
			C26.7,7,27,7.8,27.7,8.3C28,8.5,28,8.6,28,8.5c-0.1-0.1,0,0,0,0.5s-0.1,0.6,0,0.5c0.1-0.1,0,0-0.3,0.2c-0.7,0.5-1,1.3-0.9,2.1
			c0,0.2,0,0.3,0.1,0.4c0,0.1-0.1,0.2-0.3,0.4c-0.2,0.2-0.3,0.3-0.4,0.3h0c-0.1,0-0.2,0-0.4-0.1c-0.8-0.1-1.6,0.2-2.1,0.9
			c-0.1,0.2-0.2,0.3-0.2,0.3c-0.1,0-0.2,0-0.5,0s-0.4,0-0.5,0c0,0-0.1-0.1-0.2-0.3c-0.5-0.7-1.3-1-2.1-0.9c-0.2,0-0.3,0-0.4,0.1
			c-0.1,0-0.2-0.1-0.4-0.3c-0.2-0.2-0.3-0.3-0.3-0.4c0-0.1,0-0.2,0.1-0.4c0.1-0.8-0.2-1.6-0.9-2.1c-0.2-0.1-0.3-0.2-0.3-0.2v0
			c0-0.1,0-0.2,0-0.5s0-0.4,0-0.5c0,0,0.1-0.1,0.3-0.2c0.7-0.5,1-1.3,0.9-2.1c0-0.2,0-0.3-0.1-0.4c0-0.1,0.1-0.2,0.3-0.4
			c0.2-0.2,0.3-0.3,0.4-0.3c0.1,0,0.2,0,0.4,0.1C21,5.3,21.8,5,22.3,4.3c0.1-0.2,0.2-0.3,0.2-0.3C22.6,4,22.7,4,23,4z M15,4.3
			l1.8,1.5C16.9,5.8,17,5.9,17.1,6c0,0.3,0.1,0.4,0.1,0.5c0,0,0,0,0,0c0,0.1,0,0.1-0.1,0.2c0,0,0,0,0,0c-0.1,0.1-0.4,0.2-0.8,0.6
			C16.1,7.8,16,8.3,16,9s0.1,1.2,0.4,1.7c0.3,0.4,0.6,0.6,0.8,0.6c0,0,0,0,0,0c0.1,0,0.1,0.1,0.1,0.2c0,0,0,0,0,0
			c0,0.1-0.2,0.4-0.1,1s0.4,1,0.9,1.5c0.5,0.5,0.9,0.8,1.5,0.9c0.6,0.1,0.8-0.1,1-0.1c0,0,0,0,0,0c0.1,0,0.1,0,0.2,0.1c0,0,0,0,0,0
			c0.1,0.1,0.2,0.4,0.7,0.8c0.4,0.3,1,0.4,1.7,0.4s1.2-0.1,1.7-0.4c0.1-0.1,0.2-0.2,0.3-0.3c-0.5,5.6-4.1,10.5-9.5,12.4
			c-0.3,0.1-0.3,0.1-0.4,0.2C9,25.6,5,19.8,5,13.3V9.7c0.4-0.1,0.8-0.3,1.6-0.5c2.6-0.9,4.9-2.1,7-3.8C14.4,4.8,14.7,4.6,15,4.3
			L15,4.3z M23,7.5c-0.8,0-1.5,0.7-1.5,1.5s0.7,1.5,1.5,1.5s1.5-0.7,1.5-1.5S23.8,7.5,23,7.5z"/>
		<path class="st2" d="M15,13c-1.1,0-2,0.9-2,2c0,0,0,0,0,0c0,0.7,0.4,1.4,1,1.7V19c0,0.6,0.4,1,1,1c0.6,0,1-0.4,1-1c0,0,0,0,0,0
			v-2.3c0.6-0.4,1-1,1-1.7C17,13.9,16.1,13,15,13C15,13,15,13,15,13z"/>
	</g>
</g>
</svg>
