<?xml version="1.0" encoding="utf-8"?>
<!-- Generator: Adobe Illustrator 23.0.4, SVG Export Plug-In . SVG Version: 6.00 Build 0)  -->
<svg version="1.1"
	 id="Calque_1" xmlns:cc="http://creativecommons.org/ns#" xmlns:dc="http://purl.org/dc/elements/1.1/" xmlns:rdf="http://www.w3.org/1999/02/22-rdf-syntax-ns#"
	 xmlns="http://www.w3.org/2000/svg" xmlns:xlink="http://www.w3.org/1999/xlink" x="0px" y="0px" viewBox="0 0 32 40"
	 style="enable-background:new 0 0 32 40;" xml:space="preserve">
<style type="text/css">
	.st0{fill:none;}
</style>
<rect class="st0" width="32" height="32"/>
<path color-rendering="auto" image-rendering="auto" shape-rendering="auto" d="M16,2C8.3,2,2,8.3,2,16s6.3,14,14,14s14-6.3,14-14
	S23.7,2,16,2z M16,4c6.6,0,12,5.4,12,12s-5.4,12-12,12S4,22.6,4,16S9.4,4,16,4z"/>
<path color-rendering="auto" image-rendering="auto" shape-rendering="auto" d="M16,9c-0.6,0-1,0.5-1,1v4.3c-0.6,0.4-1,1-1,1.7
	c0,1.1,0.9,2,2,2c0.2,0,0.3,0,0.5-0.1l3,3c0.4,0.4,1,0.4,1.4,0c0.4-0.4,0.4-1,0-1.4c0,0,0,0,0,0l-3-3c0-0.2,0.1-0.3,0.1-0.5
	c0-0.7-0.4-1.4-1-1.7V10C17,9.4,16.6,9,16,9C16,9,16,9,16,9L16,9z"/>
</svg>
